<?xml version="1.0" encoding="UTF-8" standalone="no"?>
<!DOCTYPE svg PUBLIC "-//W3C//DTD SVG 1.1//EN" "http://www.w3.org/Graphics/SVG/1.1/DTD/svg11.dtd">
<svg width="100%" height="100%" viewBox="0 0 1405 700" version="1.1" xmlns="http://www.w3.org/2000/svg" xmlns:xlink="http://www.w3.org/1999/xlink" xml:space="preserve" xmlns:serif="http://www.serif.com/" style="fill-rule:evenodd;clip-rule:evenodd;stroke-linejoin:round;stroke-miterlimit:2;">
    <path id="hat_granny_back" d="M147.868,641.692C103.726,658.589 59.607,677.76 15.513,699.223C5.533,658.881 0.5,617.709 0.5,576.417C0.5,258.409 293.273,0.226 653.887,0.226C919.71,0.226 1148.669,140.516 1250.671,341.645C1435.971,403.995 1458.079,566.025 1297.029,678.051C1295.591,685.131 1294.001,692.19 1292.261,699.223C1286.861,696.688 1281.461,694.183 1276.062,691.71C1275.479,692.066 1274.893,692.422 1274.306,692.776C826.544,490.892 401.735,540.992 120.25,661.924C129.357,655.116 138.565,648.371 147.868,641.692Z" style="fill:rgb(152,236,210);"/>
</svg>
